<?xml version="1.0" standalone="no"?>
<!DOCTYPE svg PUBLIC "-//W3C//DTD SVG 20010904//EN"
 "http://www.w3.org/TR/2001/REC-SVG-20010904/DTD/svg10.dtd">
<svg version="1.0" xmlns="http://www.w3.org/2000/svg"
 width="700.000000pt" height="700.000000pt" viewBox="0 0 700.000000 700.000000"
 preserveAspectRatio="xMidYMid meet">
<metadata>
Created by potrace 1.14, written by Peter Selinger 2001-2017
</metadata>
<g transform="translate(0.000000,700.000000) scale(0.100000,-0.100000)"
fill="#000000" stroke="none">
<path d="M3879 5517 c-81 -40 -97 -73 -168 -342 -22 -82 -56 -211 -76 -285
-20 -74 -54 -200 -75 -280 -21 -80 -55 -206 -75 -280 -68 -251 -485 -1807
-490 -1830 -2 -8 -22 -82 -45 -165 -22 -82 -43 -159 -45 -170 -3 -11 -26 -96
-51 -190 -66 -240 -72 -270 -68 -322 8 -98 92 -181 194 -191 118 -11 217 70
244 199 3 13 26 101 51 194 25 94 57 211 70 260 13 50 33 126 45 170 12 44 37
139 56 210 20 72 41 153 49 180 7 28 43 160 79 295 36 135 81 304 101 375 20
72 38 139 40 150 3 11 48 182 101 380 80 297 129 483 159 595 17 64 108 404
129 480 100 367 104 397 65 474 -53 102 -185 145 -290 93z"/>
<path d="M1975 4948 c-16 -6 -43 -21 -60 -33 -68 -51 -1295 -1289 -1311 -1323
-25 -52 -23 -147 5 -192 32 -54 1298 -1316 1339 -1336 140 -66 312 41 312 196
0 92 -8 101 -590 683 -303 303 -550 553 -550 557 0 4 249 256 553 561 609 609
596 594 584 699 -3 28 -16 69 -29 91 -23 42 -97 98 -132 100 -12 1 -37 3 -56
4 -19 2 -48 -2 -65 -7z"/>
<path d="M4888 4946 c-59 -23 -87 -46 -116 -95 -23 -39 -27 -57 -27 -116 1
-58 5 -77 25 -105 13 -19 268 -280 567 -579 299 -299 543 -547 543 -551 0 -4
-247 -254 -550 -557 -413 -413 -554 -560 -569 -594 -48 -105 -3 -231 104 -287
42 -22 140 -21 187 2 47 23 1321 1295 1342 1341 24 49 26 114 7 169 -14 42
-90 121 -665 696 -360 360 -663 656 -682 665 -48 23 -122 27 -166 11z"/>
</g>
</svg>
